PathFileType	4	(X/Y/Z)	C:/Users/beibeiliu/ov580/test_trc/User2\sequence.24_training_dense_left.trc
DataRate	CameraRate	NumFrames	NumMarkers	Units	OrigDataRate	OrigDataStartFrame	OrigNumFrames
120	120	7	19	mm	120	282	451
Frame#	Time	ThumbCMC			ThumbMCP			ThumbIP			ThumbTip			IndexMCP			IndexPIP			IndexTip			MiddleMCP			MiddlePIP			MiddleTip			RingMCP			RingPIP			RingTip			PinkyMCP			PinkyPIP			PinkyTip			BackHand1			BackHand2			BackHand3	
		X0	Y0	Z0	X1	Y1	Z1	X2	Y2	Z2	X3	Y3	Z3	X4	Y4	Z4	X5	Y5	Z5	X6	Y6	Z6	X7	Y7	Z7	X8	Y8	Z8	X9	Y9	Z9	X10	Y10	Z10	X11	Y11	Z11	X12	Y12	Z12	X13	Y13	Z13	X14	Y14	Z14	X15	Y15	Z15	X16	Y16	Z16	X17	Y17	Z17	X18	Y18	Z18	
281	2.34167	-127.291	-79.2696	93.0179	-111.059	-93.8353	59.8198	-119.804	-110.774	32.1148	-140.053	-122.481	16.1421	-144.294	-62.4237	16.1408	-143.649	-58.0024	-13.977	-146.144	-58.3446	-41.0571	-161.638	-66.8639	3.70333	-160.645	-68.1474	-26.8765	-162.746	-68.4454	-55.3603	-173.655	-96.659	6.28841	-162.576	-123.513	-4.74051	-146.626	-137.601	27.9152	-190.774	-115.225	25.4189	-165.389	-140.263	21.3262	-161.735	-144.687	54.4939	-188.783	-77.272	64.0545	-194.937	-70.8752	98.7568	-161.515	-59.2772	82.3085	
282	2.35	-125.683	-83.7137	91.4122	-114.624	-100.556	64.4113	-120.075	-114.926	30.818	-143.347	-125.423	10.4583	-140.103	-62.1165	13.9396	-137.972	-59.9915	-10.975	-141.245	-58.8369	-42.335	-161.782	-69.1733	2.9607	-155.311	-66.4912	-24.9902	-156.603	-65.9182	-53.3821	-172.843	-95.0587	4.72149	-161.254	-122.882	-5.71358	-155.632	-142.616	27.3566	-188.391	-112.384	20.3266	-172.065	-142.856	18.409	-166.307	-145.893	50.589	-189.227	-73.2917	62.4011	-197.686	-71.8258	96.6249	-158.183	-58.3528	81.6572	
283	2.35833	-131.963	-90.7337	94.6308	-119.522	-106.427	61.6483	-127.024	-119.164	30.4382	-144.114	-127.504	9.82914	-137.151	-66.1783	18.573	-134.831	-63.0478	-7.63516	-136.25	-59.9041	-39.1371	-156.035	-68.4728	4.55208	-153.764	-67.6667	-23.2091	-151.521	-63.7559	-52.984	-176.996	-95.477	4.67767	-167.004	-124.842	-6.99593	-160.386	-142.729	24.4919	-192.495	-112.774	18.3129	-180.15	-142.656	16.1973	-171.836	-149.123	47.3869	-193.954	-73.884	62.7993	-193.812	-69.2809	96.229	-157.625	-61.3558	81.8324	
284	2.36667	-137.442	-97.0209	95.9455	-122.671	-113.574	65.6045	-129.07	-123.963	30.774	-150.885	-127.984	11.3642	-138.105	-69.8645	21.0883	-134.212	-64.783	-11.9385	-129.781	-60.7707	-37.8816	-155.808	-70.0469	7.71589	-149.58	-68.0603	-20.7062	-144.041	-63.3213	-51.9281	-174.995	-95.5521	3.92135	-168.392	-123.048	-9.01989	-163.004	-142.944	22.2158	-191.786	-111.68	16.0745	-183.137	-141.044	14.39	-180.573	-147.721	51.0574	-190.593	-74.2763	60.1093	-202.162	-68.9512	95.9842	-158.263	-65.2881	83.7704	
285	2.375	-142.022	-100.509	94.8671	-125.38	-118.056	64.6682	-134.966	-127.89	32.2373	-149.096	-133.415	7.7569	-137.888	-72.3368	17.1789	-127.42	-67.3218	-9.60415	-126.274	-63.2528	-34.2261	-155.96	-70.8919	4.2564	-145.671	-68.7858	-23.7198	-139.938	-63.83	-51.7371	-178.285	-93.6799	4.92196	-169.059	-122.068	-9.6248	-171.505	-143.527	21.2609	-195.299	-110.479	15.1885	-188.831	-143.702	15.0258	-185.94	-146.999	46.5441	-194.218	-72.4307	60.8451	-202.368	-70.1033	90.2961	-163.194	-67.7901	85.6032	
286	2.38333	-146.7	-103.369	93.1296	-131.811	-122.659	67.5191	-138.87	-130.705	29.6312	-155.959	-132.882	8.91084	-136.463	-74.2202	17.7125	-128.569	-70.6172	-6.48854	-126.729	-66.7929	-31.3506	-156.947	-72.3666	9.0487	-147.121	-70.491	-19.9651	-138.85	-65.2804	-52.5101	-174.598	-92.6845	1.2851	-173.079	-122.644	-11.29	-175.361	-141.703	21.5564	-201.344	-109.365	13.3452	-190.852	-140.574	11.7401	-189.79	-146.092	46.4032	-196.379	-74.7645	56.9936	-201.457	-69.1999	91.4747	-164.264	-70.2378	86.284	
287	2.39167	-149.26	-105.391	96.824	-137.565	-122.801	65.0823	-140.992	-133.508	28.8981	-159.827	-134.914	6.90195	-135.23	-75.0254	19.4952	-129.446	-71.3694	-3.75968	-120.362	-67.0156	-33.7626	-155.552	-72.5972	9.58219	-141.514	-69.382	-22.2638	-134.036	-66.1244	-49.6796	-176.991	-91.7775	2.79229	-170.72	-117.825	-12.9738	-174.876	-140.171	18.8884	-201.689	-107.428	12.7309	-192.354	-139.394	10.5046	-191.53	-143.957	40.9127	-198.482	-72.5488	55.5141	-207.805	-68.3903	92.3715	-166.421	-70.7357	85.3177	
